<?xml version="1.0" standalone="no"?>
<!DOCTYPE svg PUBLIC "-//W3C//DTD SVG 20010904//EN"
 "http://www.w3.org/TR/2001/REC-SVG-20010904/DTD/svg10.dtd">
<svg version="1.0" xmlns="http://www.w3.org/2000/svg"
 width="980.000000pt" height="980.000000pt" viewBox="0 0 980.000000 980.000000"
 preserveAspectRatio="xMidYMid meet">

<g transform="translate(0.000000,980.000000) scale(0.100000,-0.100000)"
fill="#000000" stroke="none">
<path d="M7425 7754 c-71 -7 -251 -24 -400 -38 -148 -15 -387 -37 -530 -51
-143 -14 -494 -47 -780 -74 -286 -28 -527 -53 -536 -56 -31 -12 -17 45 -199
-785 -61 -278 -140 -635 -175 -795 -35 -159 -80 -364 -100 -455 -114 -519
-186 -847 -191 -862 -3 -10 -11 -18 -17 -18 -7 0 -57 -22 -112 -49 -449 -216
-693 -519 -820 -1015 -18 -72 -52 -234 -75 -361 -23 -126 -52 -273 -65 -326
-101 -412 -300 -599 -715 -670 -46 -8 -167 -13 -311 -13 -218 -1 -239 -2 -258
-20 -28 -26 -27 -71 2 -100 22 -22 36 -25 153 -31 414 -24 763 53 959 212 141
115 244 298 310 552 8 31 37 180 65 331 28 151 62 320 76 375 105 415 301 680
651 884 146 84 218 107 817 257 1618 405 2293 575 2314 584 12 5 26 20 31 32
5 13 18 172 30 353 11 182 46 710 76 1173 30 464 55 866 55 893 0 37 -5 53
-22 69 -25 23 -43 24 -233 4z m-131 -276 c-127 -131 -386 -397 -624 -643 -80
-82 -189 -195 -242 -250 l-97 -99 -168 165 c-92 91 -304 297 -471 459 -166
161 -301 295 -299 297 2 2 238 26 523 53 820 78 1046 100 1239 119 99 10 198
19 219 20 l40 1 -120 -122z m182 -699 c-25 -382 -53 -800 -61 -929 -17 -267
-26 -374 -30 -378 -2 -2 -215 202 -474 454 l-470 457 117 122 c471 489 957
984 960 977 1 -5 -18 -321 -42 -703z m-1412 -240 l160 -156 -33 -39 c-19 -22
-181 -190 -360 -374 -179 -184 -398 -409 -486 -500 -88 -91 -234 -240 -324
-332 -91 -92 -198 -202 -239 -245 -57 -60 -72 -72 -68 -53 6 30 87 402 121
555 13 61 71 324 129 585 57 261 145 664 196 895 50 231 94 426 96 434 3 8
132 -111 326 -300 177 -173 394 -384 482 -470z m572 -554 c159 -154 369 -359
467 -455 98 -96 184 -178 190 -182 6 -4 9 -9 7 -12 -3 -2 -383 -99 -845 -215
-462 -115 -1018 -255 -1235 -310 -217 -55 -395 -99 -396 -98 -4 4 806 840
1321 1365 94 95 172 178 174 183 1 6 9 9 16 7 7 -2 143 -129 301 -283z"/>
</g>
</svg>
